<svg xmlns="http://www.w3.org/2000/svg" width="118.033" height="118.033" viewBox="0 0 118.033 118.033">
  <g id="audiobook_2083099" transform="translate(-1 -1)">
    <path id="Trazado_835" data-name="Trazado 835" d="M111.418,58.113V45.954L103.8,48.491l-7.615-2.538V58.113H73.343a7.623,7.623,0,0,0-7.615,7.615v15.23H61.92v-26.9A22.965,22.965,0,0,0,80.958,31.367V9.567a6.663,6.663,0,1,0-13.326,0V29.556a9.53,9.53,0,0,1-9.519,9.519h-10.9a15.361,15.361,0,0,0,3.13-3.808H52.4A7.591,7.591,0,0,0,56.209,21.1V20.038a19.038,19.038,0,0,0-38.075,0V21.1a7.549,7.549,0,0,0,0,13.113v7.682A24.758,24.758,0,0,0,4.808,63.824V78.1a6.6,6.6,0,0,0,.668,2.856H1v38.075H111.418a7.623,7.623,0,0,0,7.615-7.615V58.113ZM103.8,52.5l3.808-1.27v18.3H100v-18.3ZM73.343,61.92H96.188v7.615H73.343a3.808,3.808,0,0,1,0-7.615ZM65.728,96.188H58.113V92.381h7.615Zm0-7.615H58.113a3.811,3.811,0,0,0-3.808,3.808H27.653a1.907,1.907,0,0,1-1.9-1.9V84.766H65.728Zm5.711-59.017V9.567a2.856,2.856,0,1,1,5.711,0v21.8A19.179,19.179,0,0,1,59.826,50.507l-1.713.171V80.958H47.926a6.6,6.6,0,0,0,.668-2.856,6.67,6.67,0,0,0-6.663-6.663H25.749v-1.9a1.907,1.907,0,0,1,1.9-1.9h9.519a5.711,5.711,0,1,0,0-11.423H23.845a1.907,1.907,0,0,1-1.9-1.9V44.337a20.8,20.8,0,0,1,7.615-1.454,7.615,7.615,0,1,0,15.23,0H58.113A13.341,13.341,0,0,0,71.439,29.556ZM40.979,42.883a3.808,3.808,0,0,1-7.615,0Zm-3.808-3.808A11.423,11.423,0,1,1,48.594,27.653,11.434,11.434,0,0,1,37.171,39.075ZM52.4,31.46h-.5a14.728,14.728,0,0,0,0-7.615h.5a3.808,3.808,0,1,1,0,7.615ZM37.171,4.808A15.248,15.248,0,0,1,52.4,20.038h-2.06a15.2,15.2,0,0,0-26.34,0h-2.06A15.248,15.248,0,0,1,37.171,4.808ZM21.941,23.845h.5a14.728,14.728,0,0,0,0,7.615h-.5a3.808,3.808,0,1,1,0-7.615Zm0,11.423H24a15.324,15.324,0,0,0,3.257,3.924,24.5,24.5,0,0,0-5.319,1.095V35.268ZM8.615,78.1V63.824a20.931,20.931,0,0,1,9.519-17.53v8.011a5.718,5.718,0,0,0,5.711,5.711H37.171a1.9,1.9,0,1,1,0,3.808H27.653a5.718,5.718,0,0,0-5.711,5.711v1.9H12.423v3.808H41.931a2.856,2.856,0,1,1,0,5.711H11.471A2.859,2.859,0,0,1,8.615,78.1Zm2.856,6.663H21.941v5.711a5.718,5.718,0,0,0,5.711,5.711H54.305A3.811,3.811,0,0,0,58.113,100h7.615V103.8H4.808V84.766ZM4.808,107.611h60.92v3.808a7.537,7.537,0,0,0,1.058,3.808H4.808Zm68.535,7.615a3.811,3.811,0,0,1-3.808-3.808V72.284a7.537,7.537,0,0,0,3.808,1.058H77.15v41.883Zm41.883-3.808a3.811,3.811,0,0,1-3.808,3.808H80.958V73.343h34.268Zm0-41.883h-3.808V61.92h3.808v7.615Z" transform="translate(0 0)" fill="#0b77b3"/>
    <path id="Trazado_836" data-name="Trazado 836" d="M50.711,73.46a5.718,5.718,0,0,0,5.711-5.711V52.519a5.718,5.718,0,0,1,5.711-5.711h9.519V43H62.134a9.53,9.53,0,0,0-9.519,9.519v9.869a5.647,5.647,0,0,0-1.9-.35,5.711,5.711,0,0,0,0,11.423Zm0-7.615a1.9,1.9,0,1,1-1.9,1.9A1.907,1.907,0,0,1,50.711,65.845Z" transform="translate(39.765 37.958)" fill="#0b77b3"/>
    <path id="Trazado_837" data-name="Trazado 837" d="M57,57h3.808v3.808H57Z" transform="translate(50.611 50.611)" fill="#0b77b3"/>
    <path id="Trazado_838" data-name="Trazado 838" d="M57,53h3.808v3.808H57Z" transform="translate(50.611 46.996)" fill="#0b77b3"/>
    <path id="Trazado_839" data-name="Trazado 839" d="M57,49h3.808v3.808H57Z" transform="translate(50.611 43.381)" fill="#0b77b3"/>
  </g>
</svg>
