<svg id="Layer_1" height="512" viewBox="0 0 512 512" width="512" xmlns="http://www.w3.org/2000/svg" data-name="Layer 1"><path d="m236.4 66.272a8 8 0 0 1 -7.973 8h-7.691a8 8 0 1 1 0-16h7.691a8 8 0 0 1 7.973 8zm-26.7-10.545v56.746h61.567v-56.746zm-8.02 72.744h77.607a8 8 0 0 0 7.973-8v-12.89l19.06 11.011a8.089 8.089 0 0 0 4.01 1.071 7.965 7.965 0 0 0 4.011-1.071 8.055 8.055 0 0 0 4.01-6.931v-55.132a8.01 8.01 0 0 0 -4.01-6.888 7.882 7.882 0 0 0 -8.021 0l-19.06 10.993v-12.88a8 8 0 0 0 -7.973-8.02h-77.612a8.013 8.013 0 0 0 -8.02 8.02v72.72a8.005 8.005 0 0 0 8.02 8zm92.044 108.561a.939.939 0 0 1 -.9.873l-73.739-.052a.871.871 0 0 1 -.849-.868v-27.385l34.44 15.828a7.932 7.932 0 0 0 6.652 0l34.393-15.8v27.4zm34.487-57.8-68.88-31.67a7.886 7.886 0 0 0 -6.652 0l-68.88 31.67a7.97 7.97 0 0 0 -4.623 7.271v36.246a8 8 0 1 0 15.993 0v-23.766l7.077 3.26v34.742a16.881 16.881 0 0 0 16.842 16.866l73.739.052a16.89 16.89 0 0 0 16.89-16.871v-34.761l18.494-8.511a7.983 7.983 0 0 0 0-14.526zm78.74-45.352h-38.927v7.162h23.731a8.011 8.011 0 0 1 8.02 8v162.121a8.007 8.007 0 0 1 -8.02 8h-271.509a8.007 8.007 0 0 1 -8.021-8v-162.123a8.012 8.012 0 0 1 8.021-8h23.777v-7.162h-38.969v192.452h301.892v-192.448zm33.638 362.109h-369.173a20.219 20.219 0 0 1 -18.493-12.179h406.154a20.219 20.219 0 0 1 -18.493 12.181zm-31.189-153.656 2.878 7.558h-312.555l2.878-7.558zm-97 76.461h-112.8a12.837 12.837 0 0 0 -12.833 12.819v36.2h-131.91l38.78-101.918h324.726l38.78 101.918h-131.909v-36.2a12.837 12.837 0 0 0 -12.834-12.819zm-152.383-402.794v261.64h191.966v-261.64zm-8.017 277.641a7.966 7.966 0 0 1 -7.973-8v-128.6h-15.8v146.12h255.554v-146.119h-15.757v128.6a8.005 8.005 0 0 1 -8.02 8zm208-293.631h-208a7.934 7.934 0 0 0 -7.973 7.973v109.9h-46.946a8 8 0 0 0 -8.02 8v206.981l-53.311 140.109a8.347 8.347 0 0 0 -.519 2.841 36.217 36.217 0 0 0 36.185 36.176h369.168a36.217 36.217 0 0 0 36.185-36.176 8.347 8.347 0 0 0 -.519-2.841l-53.311-140.109v-206.983a8 8 0 0 0 -8.02-8h-46.895v-109.898a7.973 7.973 0 0 0 -8.024-7.973z" fill-rule="evenodd"/></svg>