<svg xmlns="http://www.w3.org/2000/svg" width="121.025" height="114.929" viewBox="0 0 121.025 114.929">
  <g id="elearning_2083185" transform="translate(-1 -1)">
    <path id="Trazado_824" data-name="Trazado 824" d="M49.472,45.781c11.839,0,21.472-9.148,21.472-20.391S61.311,5,49.472,5,28,14.148,28,25.391,37.633,45.781,49.472,45.781Zm0-37.074c9.686,0,17.568,7.483,17.568,16.683S59.158,42.074,49.472,42.074,31.9,34.59,31.9,25.391,39.786,8.707,49.472,8.707Z" transform="translate(25.705 3.415)" fill="#0b77b3"/>
    <path id="Trazado_825" data-name="Trazado 825" d="M34,10.382V31.21L55.933,20.8Zm3.9,6L47.2,20.8l-9.3,4.415Z" transform="translate(31.417 8.009)" fill="#0b77b3"/>
    <path id="Trazado_826" data-name="Trazado 826" d="M112.265,1H38.088a9.535,9.535,0,0,0-9.76,9.268V46.432L7.018,57.467a3.614,3.614,0,0,0-1.688,4.97L6.276,64.2A5.347,5.347,0,0,0,4.9,67.733v9.8C2.507,78.77,1,82.056,1,84.416a5.721,5.721,0,0,0,5.856,5.561,5.721,5.721,0,0,0,5.856-5.561c0-2.36-1.507-5.646-3.9-6.886v-9.8a1.817,1.817,0,0,1,.051-.386,4.052,4.052,0,0,0,.5.206,4.006,4.006,0,0,0,1.187.18,4.159,4.159,0,0,0,1.821-.428l1.126-.584,3.6,6.864,1.509-.343.49-.115a12.972,12.972,0,0,0,5.374,7.129A20.466,20.466,0,0,0,10.76,99.246v16.683H47.849v-9.886l.2.247a16.122,16.122,0,0,0,24.986,0L79.579,98a6.721,6.721,0,0,0,1.454-4.141v-.682a6.852,6.852,0,0,0-3.9-6.082V78.855h35.136a9.535,9.535,0,0,0,9.76-9.268V10.268A9.535,9.535,0,0,0,112.265,1ZM32.232,10.268a5.721,5.721,0,0,1,5.856-5.561h74.177a5.721,5.721,0,0,1,5.856,5.561V52.9H40.689l-.109-.209,1.251-.647a3.614,3.614,0,0,0,1.688-4.97L41.758,43.8a3.809,3.809,0,0,0-2.268-1.837,4.086,4.086,0,0,0-3.008.25l-4.25,2.2Zm-25.376,76A1.907,1.907,0,0,1,4.9,84.416c0-1.52,1.327-3.626,1.946-3.707.631.082,1.958,2.187,1.958,3.707A1.907,1.907,0,0,1,6.856,86.27Zm3.713-22.237L8.845,60.744,38.282,45.483l1.759,3.279Zm6.354.912L37.15,54.472l2.421,4.614a60.536,60.536,0,0,1-9.536,6.427A61.383,61.383,0,0,1,19.191,69.27Zm5.936,7.181a56.445,56.445,0,0,0,8.989-3.331,55.438,55.438,0,0,0,7.919-5.077,8.979,8.979,0,0,1,2.225,5.869,9.535,9.535,0,0,1-9.76,9.268A9.672,9.672,0,0,1,22.859,72.126Zm54.27,21.729a3.123,3.123,0,0,1-.673,1.919l-6.549,8.293a12.094,12.094,0,0,1-18.739,0l-7.613-9.639L40.431,96.65l3.514,4.449v11.122H14.664V99.246c0-9.2,7.882-16.683,17.568-16.683h2.3a20.211,20.211,0,0,1,16.278,8.049L58.544,101.1h3.883l8.751-9.971a3.437,3.437,0,0,1,2.586-1.151,3.287,3.287,0,0,1,3.365,3.2Zm-3.9-7.53a7.353,7.353,0,0,0-5.046,2.428L60.6,97.392l-6.588-8.907c-.1-.13-.209-.241-.306-.367V64.025h19.52Zm39.04-11.178H77.129V67.733h37.088V64.025H77.129V60.318H49.8V84.156a24.265,24.265,0,0,0-9-4.475,12.718,12.718,0,0,0,5.1-10.1,12.57,12.57,0,0,0-3.121-8.225c.291-.241.482-.4.521-.434l1.107-.942-1.77-3.376h75.489V69.586A5.721,5.721,0,0,1,112.265,75.148Z" transform="translate(0 0)" fill="#0b77b3"/>
    <path id="Trazado_827" data-name="Trazado 827" d="M30,41H41.712v3.707H30Z" transform="translate(27.609 34.148)" fill="#0b77b3"/>
    <path id="Trazado_828" data-name="Trazado 828" d="M30,45h7.808v3.707H30Z" transform="translate(27.609 37.562)" fill="#0b77b3"/>
    <path id="Trazado_829" data-name="Trazado 829" d="M30,37H41.712v3.707H30Z" transform="translate(27.609 30.733)" fill="#0b77b3"/>
    <path id="Trazado_830" data-name="Trazado 830" d="M19,13h3.9v3.707H19Z" transform="translate(17.136 10.244)" fill="#0b77b3"/>
    <path id="Trazado_831" data-name="Trazado 831" d="M57,25h3.9v3.707H57Z" transform="translate(53.313 20.489)" fill="#0b77b3"/>
    <path id="Trazado_832" data-name="Trazado 832" d="M57,21h3.9v3.707H57Z" transform="translate(53.313 17.074)" fill="#0b77b3"/>
    <path id="Trazado_833" data-name="Trazado 833" d="M57,17h3.9v3.707H57Z" transform="translate(53.313 13.659)" fill="#0b77b3"/>
    <path id="Trazado_834" data-name="Trazado 834" d="M22.9,8.707H38.52V5H22.9A3.813,3.813,0,0,0,19,8.707v7.415h3.9Z" transform="translate(17.136 3.415)" fill="#0b77b3"/>
  </g>
</svg>
