<svg xmlns="http://www.w3.org/2000/svg" width="37.619" height="43.452" viewBox="0 0 37.619 43.452">
  <g id="Grupo_2" data-name="Grupo 2" transform="translate(-857.669 -391.604)">
    <path id="Trazado_365" data-name="Trazado 365" d="M76.73,44.216a.084.084,0,0,0,.084.077.085.085,0,0,0,.084-.086.078.078,0,0,0-.084-.077A.085.085,0,0,0,76.73,44.216Z" transform="translate(805.489 347.8)" fill="#fff"/>
    <path id="Trazado_366" data-name="Trazado 366" d="M76.82,56.616a.084.084,0,1,0,.168,0,.1.1,0,0,0-.084-.086A.085.085,0,0,0,76.82,56.616Z" transform="translate(805.474 346.055)" fill="#fff"/>
    <path id="Trazado_367" data-name="Trazado 367" d="M76.94,69.03a.054.054,0,0,0,.059.06.06.06,0,1,0-.059-.06Z" transform="translate(805.455 344.304)" fill="#fff"/>
    <path id="Trazado_368" data-name="Trazado 368" d="M77.05,81.456a.038.038,0,0,0,.025.026.027.027,0,0,0,.025-.026.023.023,0,0,0-.025-.026A.027.027,0,0,0,77.05,81.456Z" transform="translate(805.438 342.55)" fill="#fff"/>
    <path id="Trazado_369" data-name="Trazado 369" d="M77.15,93.856a.023.023,0,0,0,.025.026.026.026,0,0,0,0-.052A.023.023,0,0,0,77.15,93.856Z" transform="translate(805.422 340.805)" fill="#fff"/>
    <path id="Trazado_370" data-name="Trazado 370" d="M63.87,44.231a.485.485,0,0,0,.471.473.477.477,0,0,0-.008-.954.485.485,0,0,0-.462.481Z" transform="translate(807.541 347.854)" fill="#fff"/>
    <path id="Trazado_371" data-name="Trazado 371" d="M64,56.657a.437.437,0,0,0,.437.438.449.449,0,0,0,.429-.447.442.442,0,0,0-.437-.438A.432.432,0,0,0,64,56.657Z" transform="translate(807.52 346.1)" fill="#fff"/>
    <path id="Trazado_372" data-name="Trazado 372" d="M64.11,69.061a.408.408,0,1,0,.4-.421A.41.41,0,0,0,64.11,69.061Z" transform="translate(807.503 344.35)" fill="#fff"/>
    <path id="Trazado_373" data-name="Trazado 373" d="M64.24,81.478a.374.374,0,0,0,.37.387.386.386,0,0,0,.378-.387.373.373,0,0,0-.378-.378A.362.362,0,0,0,64.24,81.478Z" transform="translate(807.482 342.597)" fill="#fff"/>
    <path id="Trazado_374" data-name="Trazado 374" d="M64.39,93.9a.315.315,0,1,0,.311-.327A.316.316,0,0,0,64.39,93.9Z" transform="translate(807.458 340.842)" fill="#fff"/>
    <path id="Trazado_376" data-name="Trazado 376" d="M69.463,78.847c.74-4.5,1.009-9.46-.5-13.817a12.829,12.829,0,0,0-.681-1.676.224.224,0,0,0-.176-.06l-5.295,2.921,6.648,12.622ZM55.941,53.078l6.387,12.21,5.438-2.982c-2.639-4.468-7.211-7.235-11.825-9.22Zm16.027,6.874,6.522-3.5c.05-.163-.008-.1-.084-.137-.891-.576-1.824-1.091-2.706-1.684a.57.57,0,0,1,.025-.842l8.934-.722c.521.052.6.5.328.911l-5.354,7.175a.514.514,0,0,1-.74-.412l.084-3.437-6.488,3.583a25.3,25.3,0,0,1,2,13.593c-.185,1.933-.857,4.2-.941,5.98-.084,1.959.79,2.415,1.219,3.918A1.992,1.992,0,0,1,71.161,86a11.56,11.56,0,0,1-2.042-5.637L61.942,66.715,56.815,69.49c-.16.232.042,2.483-.067,2.982a.73.73,0,0,1-.2.361l-5.631,3.093c-1.311.4-.546-1.727-.445-2.354a8.291,8.291,0,0,1,.143-1.28c-.076-.189-2.74-1.126-3-1.521a.494.494,0,0,1,.084-.67l5.732-3.145a.833.833,0,0,1,.538.06c.647.258,1.53,1.169,2.194,1.435a.4.4,0,0,0,.261.052c1.353-.765,2.765-1.444,4.11-2.225.168-.1.84-.447.849-.576l-7-13.4c-1.462-.851-2.765-3.1-3.362-4.692A1.978,1.978,0,0,1,54.3,45.448c.487.593.74,1.426,1.219,2.045,1.168,1.478,3.185,1.942,4.832,2.7,4.79,2.208,8.623,4.941,11.505,9.495a.374.374,0,0,1,.067.249Z" transform="translate(810.15 347.719)" fill="#fff"/>
  </g>
</svg>
