<svg xmlns="http://www.w3.org/2000/svg" width="45.62" height="40.084" viewBox="0 0 45.62 40.084">
  <g id="Grupo_8" data-name="Grupo 8" transform="translate(-849.41 -560.197)">
    <path id="Trazado_406" data-name="Trazado 406" d="M85.364,249.553l.052.712c-.259.888-.879,1.055-1.672,1.257a19.5,19.5,0,0,1-9.116-.255c-1.189-.334-2.335-.888-3.541-1.2-2.4-.615-4.575-.123-7.023-.607-3.042-.607-5.989-1.952-9.056-2.506-2.576-.457-4.825-.079-7.376-.2-1.861-.088-5.584-.642-7.169-1.618a1.373,1.373,0,0,1,.707-2.549,23.442,23.442,0,0,0,5.411,1.327c2.645.273,5.308-.176,7.91.176,3.481.466,6.8,2.048,10.2,2.717,1.99.387,3.852,0,5.851.334,2.146.343,4.093,1.451,6.238,1.811a18.511,18.511,0,0,0,7.419-.316,1.512,1.512,0,0,1,1.172.906Z" transform="translate(809.613 348.333)" fill="#fff"/>
    <path id="Trazado_407" data-name="Trazado 407" d="M77.721,222.3a1.628,1.628,0,0,1-1.017.44c-1.5-.431-3.274-.51-4.748-.958a1.46,1.46,0,0,1-1.051-.9c-.646-1.4-1.051-3.139-1.654-4.589l-5.7,2.646-.138.176,5.265,3.578a1.515,1.515,0,0,1,0,2.128l-3.473,4.5c-.017.193.026.105.129.132a2.565,2.565,0,0,1,.767.264,1.4,1.4,0,0,1-.681,2.523,18.142,18.142,0,0,1-3.352-.747,1.342,1.342,0,0,1-.569-1.688l4.343-5.758-6.083-4.211a1.393,1.393,0,0,1,.457-2.365c2.93-1.626,6.4-2.8,9.409-4.343a1.3,1.3,0,0,1,1.542.7L73.18,219.2c1.043.457,3.559.448,4.386,1.081a1.437,1.437,0,0,1,.146,2.022Z" transform="translate(806.917 351.898)" fill="#fff"/>
    <path id="Trazado_408" data-name="Trazado 408" d="M74.743,232.777a4.077,4.077,0,0,0-3,3.481,3.959,3.959,0,0,0,7.135,2.848,4.035,4.035,0,0,0-4.136-6.33Zm.009-2.787a6.8,6.8,0,0,1,7.066,9.4,6.622,6.622,0,0,1-11.753.967,6.831,6.831,0,0,1,4.687-10.365Z" transform="translate(805.569 349.865)" fill="#fff"/>
    <path id="Trazado_409" data-name="Trazado 409" d="M49,222.637a4.083,4.083,0,0,0-3.016,3.481,3.959,3.959,0,0,0,7.135,2.848,4.033,4.033,0,0,0-4.127-6.33Zm0-2.787a6.792,6.792,0,0,1,7.066,9.4,6.622,6.622,0,0,1-11.753.967A6.831,6.831,0,0,1,49,219.85Z" transform="translate(809.131 351.09)" fill="#fff"/>
    <path id="Trazado_410" data-name="Trazado 410" d="M79.093,210.392c-2.43.554-1.741,4.466.844,3.974C82.462,213.873,81.73,209.8,79.093,210.392Zm4.963,5.125-.56-.651a5.036,5.036,0,0,1-1.637,1.653c-.138.088-.379.123-.491.237-.138.167-.164.712-.379.993a1.462,1.462,0,0,1-1.379.484,23.922,23.922,0,0,1-3.473-2.611,4.751,4.751,0,0,1,4.317-7.895c2.956.554,4.076,4.07,5.756,6.233a1.364,1.364,0,0,1-2.146,1.574Z" transform="translate(804.76 352.557)" fill="#fff"/>
  </g>
</svg>
