<svg xmlns="http://www.w3.org/2000/svg" width="38.536" height="39.382" viewBox="0 0 38.536 39.382">
  <g id="Grupo_13" data-name="Grupo 13" transform="translate(-853.944 -646.09)">
    <path id="Trazado_435" data-name="Trazado 435" d="M358.918,247.985a3.491,3.491,0,0,1,3.838-2.934l-1.131-6.8,10.682-4.887,1.867,10.745c.445,5.307-7.255,5.062-6.741.07.12-1.27,1.49-3.039,2.81-3.039h1.1l-.754-4.387L364.2,239.6l1.49,8.941a3.658,3.658,0,0,1-2.87,3.424H361.7a3.655,3.655,0,0,1-2.784-2.916c.026-.342-.043-.744,0-1.077Z" transform="translate(495.041 433.503)" fill="#fff"/>
    <path id="Trazado_436" data-name="Trazado 436" d="M399.707,209.649l-1.987,15.308a4.546,4.546,0,1,1-1.7-4.536l1.054-8.162-11.658,1.147-1.6,12.716a4.525,4.525,0,0,1-8.206,2.058c-2.441-3.573.882-8.328,4.977-7.093a14.2,14.2,0,0,1,1.525.709l1.353-10.509,16.25-1.646Z" transform="translate(492.765 436.45)" fill="#fff"/>
    <path id="Trazado_437" data-name="Trazado 437" d="M364.945,221.79l-1.653-8.53,7.512,5.123-1.165,1.883-3.041-2.014,1.276,6.507c.445,5.219-7.272,5.149-6.759,0,.128-1.209,1.482-2.969,2.733-2.969Z" transform="translate(494.728 436)" fill="#fff"/>
    <path id="Trazado_438" data-name="Trazado 438" d="M396.348,242.576l-2.176.692L393,239.879l-2.655,5.666a3.413,3.413,0,1,1-.685-3.888l3.615-7.847,3.084,8.766Z" transform="translate(491.463 433.447)" fill="#fff"/>
  </g>
</svg>
