<svg xmlns="http://www.w3.org/2000/svg" width="61.023" height="45.801" viewBox="0 0 61.023 45.801">
  <g id="Grupo_5" data-name="Grupo 5" transform="translate(-843.368 -477.109)">
    <path id="Trazado_336" data-name="Trazado 336" d="M410.3,82.42a.056.056,0,0,0-.058.059.063.063,0,0,0,.058.059.059.059,0,0,0,0-.118Z" transform="translate(493.039 428.987)" fill="#fff"/>
    <path id="Trazado_337" data-name="Trazado 337" d="M401.767,77.96a.08.08,0,0,0-.087.079.087.087,0,0,0,.087.089.08.08,0,0,0,.087-.079A.087.087,0,0,0,401.767,77.96Z" transform="translate(493.322 429.047)" fill="#fff"/>
    <path id="Trazado_338" data-name="Trazado 338" d="M391.1,77.83a.072.072,0,0,0-.077.079A.08.08,0,0,0,391.1,78a.082.082,0,0,0,.087-.089C391.184,77.86,391.155,77.83,391.1,77.83Z" transform="translate(493.675 429.049)" fill="#fff"/>
    <path id="Trazado_339" data-name="Trazado 339" d="M380.436,77.67a.121.121,0,0,0-.126.118.119.119,0,0,0,.116.118.121.121,0,0,0,.126-.118A.126.126,0,0,0,380.436,77.67Z" transform="translate(494.029 429.051)" fill="#fff"/>
    <path id="Trazado_340" data-name="Trazado 340" d="M369.756,77.54a.113.113,0,0,0-.116.118.116.116,0,1,0,.232,0A.113.113,0,0,0,369.756,77.54Z" transform="translate(494.382 429.053)" fill="#fff"/>
    <path id="Trazado_341" data-name="Trazado 341" d="M359.085,77.38a.142.142,0,0,0-.145.138.15.15,0,0,0,.145.148.142.142,0,0,0,.145-.138A.15.15,0,0,0,359.085,77.38Z" transform="translate(494.736 429.055)" fill="#fff"/>
    <path id="Trazado_342" data-name="Trazado 342" d="M348.415,77.25a.134.134,0,0,0-.135.138.136.136,0,0,0,.135.148.142.142,0,0,0,.145-.138A.144.144,0,0,0,348.415,77.25Z" transform="translate(495.089 429.057)" fill="#fff"/>
    <path id="Trazado_345" data-name="Trazado 345" d="M410.416,71.39a.414.414,0,1,0,.406.414.424.424,0,0,0-.406-.414Z" transform="translate(493.047 429.135)" fill="#fff"/>
    <path id="Trazado_346" data-name="Trazado 346" d="M401.9,66.94a.427.427,0,0,0-.435.424.442.442,0,0,0,.425.444.449.449,0,0,0,.435-.434A.434.434,0,0,0,401.9,66.94Z" transform="translate(493.329 429.195)" fill="#fff"/>
    <path id="Trazado_347" data-name="Trazado 347" d="M391.224,66.77a.452.452,0,0,0-.464.454.459.459,0,0,0,.445.474.447.447,0,0,0,.464-.454A.453.453,0,0,0,391.224,66.77Z" transform="translate(493.684 429.198)" fill="#fff"/>
    <path id="Trazado_348" data-name="Trazado 348" d="M380.553,66.61a.5.5,0,0,0-.01,1,.5.5,0,0,0,.01-1Z" transform="translate(494.037 429.2)" fill="#fff"/>
    <path id="Trazado_349" data-name="Trazado 349" d="M369.882,66.45a.525.525,0,0,0-.532.523.513.513,0,1,0,1.025.01.537.537,0,0,0-.5-.543Z" transform="translate(494.392 429.202)" fill="#fff"/>
    <path id="Trazado_352" data-name="Trazado 352" d="M410.542,60.31a.806.806,0,0,0-.812.8.816.816,0,0,0,.783.839.83.83,0,0,0,.822-.809A.816.816,0,0,0,410.542,60.31Z" transform="translate(493.056 429.285)" fill="#fff"/>
    <path id="Trazado_353" data-name="Trazado 353" d="M402.011,55.84a.849.849,0,1,0,.822.858A.838.838,0,0,0,402.011,55.84Z" transform="translate(493.339 429.345)" fill="#fff"/>
    <path id="Trazado_354" data-name="Trazado 354" d="M391.35,55.68a.892.892,0,0,0-.88.868.863.863,0,0,0,.851.878.848.848,0,0,0,.861-.858.873.873,0,0,0-.841-.9Z" transform="translate(493.693 429.347)" fill="#fff"/>
    <path id="Trazado_355" data-name="Trazado 355" d="M380.679,55.53a.89.89,0,0,0-.9.9.89.89,0,1,0,1.779.02A.885.885,0,0,0,380.679,55.53Z" transform="translate(494.047 429.349)" fill="#fff"/>
    <path id="Trazado_356" data-name="Trazado 356" d="M370,55.37a.911.911,0,0,0-.919.917.926.926,0,0,0,.9.947.94.94,0,0,0,.928-.927A.926.926,0,0,0,370,55.37Z" transform="translate(494.4 429.351)" fill="#fff"/>
    <path id="Trazado_390" data-name="Trazado 390" d="M366.89,70.623c-3.916.543-3.346,6.787.928,6.255C371.6,76.4,371.057,70.051,366.89,70.623Zm1.547-10.812c-3.713.552-3.191,6.768,1.025,6.255,3.8-.474,3.346-6.906-1.025-6.255Zm11.381-1.776c-4.061.1-3.887,6.462.155,6.383,3.993-.089,3.935-6.481-.155-6.383Zm1.441,15a7.327,7.327,0,0,0-6.585,6.018c-.6,2.683.406,4.913-1.973,7.034-2.939,2.634-6.034.947-8.664-1.085a19.664,19.664,0,0,1-3.8-26.666,18.668,18.668,0,0,1,27.77-3.206,9.954,9.954,0,0,0-.048,4.173,8.8,8.8,0,0,1,.338,1.213,32.7,32.7,0,0,1-1.653,3.433c-.155.207-.358.207-.512.355a17.882,17.882,0,0,0-2.369,3.68c-.919,1.638-1.731,3.344-2.514,5.051Z" transform="translate(494.812 429.419)" fill="#fff"/>
    <path id="Trazado_391" data-name="Trazado 391" d="M396.778,65.638c.126.128-1.305,2.792-1.238,3.275.019.118.145.256.164.424.193,1.332-2.736,8.425-3.481,10-1.924,4.173-5.347,9.875-8.751,12.9-5.366,4.755-3.974-3.788-3.433-6.758a54.477,54.477,0,0,1,6.73-17.511c.541-.917,1-2,2-2.4l1.508-2.989a7.958,7.958,0,0,0,6.507,3.048Z" transform="translate(494.057 429.254)" fill="#fff"/>
    <path id="Trazado_392" data-name="Trazado 392" d="M399.983,47.877c1.238-.829,2.427.839,2.833,1.914,1.267,3.344.551,10.516-2.659,12.677-5.792,3.877-12.309-3.591-8.112-8.77,1.489-1.845,2.7-1.647,4.632-2.466a7.593,7.593,0,0,0,3.317-3.354Z" transform="translate(493.685 429.455)" fill="#fff"/>
  </g>
</svg>
