<svg xmlns="http://www.w3.org/2000/svg" width="51.617" height="52.817" viewBox="0 0 51.617 52.817">
  <g id="Grupo_11" data-name="Grupo 11" transform="translate(-1020.368 -638.018)">
    <path id="Trazado_450" data-name="Trazado 450" d="M557.882,245.58l-8.658-8.7c-1.018-1.361-1.136-4.487-1.235-6.221-.237-3.912-.128-10.83.909-14.56.375-1.361,1.562-.514,2.283.05a7.012,7.012,0,0,1,2.619,6.393,20.951,20.951,0,0,0-.484,2.309,18.567,18.567,0,0,0,.593,2.349c-2.135.524-2.421,2.985-1.354,4.709a48.917,48.917,0,0,0,4.26,4.961c.524.555,1.364,1.724,2.145.857.435-.5.267-.928-.069-1.4-1.324-1.9-3.479-3.64-4.843-5.576a1.357,1.357,0,0,1,.089-1.684c1.364-1.583,3.7,1.553,4.625,2.44.84.776,2.125,2.239,3.182,2.44,2.006.393,2.975.383,4.694,1.734,3.153,2.46,3.281,6.141,3.143,9.912h-11.9Z" transform="translate(472.484 436.438)" fill="#fff"/>
    <path id="Trazado_451" data-name="Trazado 451" d="M577.96,245.58c-.128-3.771-.01-7.452,3.143-9.912,1.72-1.351,2.688-1.331,4.694-1.734,1.7-.333,4.072-3.822,5.673-4.85,1.542-1,2.985-.1,2.224,1.664-1.354,1.936-3.528,3.68-4.843,5.576-.336.494-.544.9-.059,1.4.8.827,1.571-.262,2.135-.857a51.207,51.207,0,0,0,4.26-4.961c1.058-1.714.781-4.195-1.354-4.709a17.015,17.015,0,0,0,.593-2.349c.02-.9-.553-2.107-.563-3.186a7.092,7.092,0,0,1,2.7-5.516c.731-.565,1.907-1.4,2.283-.05,1.038,3.7,1.137,10.658.909,14.56-.1,1.724-.217,4.86-1.235,6.221l-8.657,8.7h-11.9Z" transform="translate(472.133 436.438)" fill="#fff"/>
    <path id="Trazado_452" data-name="Trazado 452" d="M584.369,227.185c-1.463,1.492-4.279,1.644-6.157.988-1.117-.383-2.421-1.5-3.508-1.734-2.105-.444-3.5,1.24-5.376,1.795-3.133.928-7.313-.3-6.948-4.306.287-3.025,3.311-3.206,4.773-5.153,1.2-1.593,1.146-3.852,2.678-5.264a6.563,6.563,0,0,1,5.732-1.24c4.8.857,3.074,5.223,6.088,7.573,1.077.847,2.461,1.129,3.212,2.39A4.106,4.106,0,0,1,584.369,227.185Z" transform="translate(472.315 436.41)" fill="#fff"/>
    <path id="Trazado_453" data-name="Trazado 453" d="M558.011,247.27l12.68.071c.336.151.474.716.5,1.059a29.166,29.166,0,0,1,0,4.356c-.059.7-.267,1.18-1,1.26-3.785-.272-8.025.353-11.741.01a1.133,1.133,0,0,1-1.117-.928,32.562,32.562,0,0,1-.01-4.709c.03-.444.2-1.008.682-1.129Z" transform="translate(472.375 436.704)" fill="#fff"/>
    <path id="Trazado_454" data-name="Trazado 454" d="M577.311,247.27l12.68.071a1.254,1.254,0,0,1,.5.938,32.224,32.224,0,0,1,0,4.477c-.059.7-.277,1.18-1.008,1.26-3.775-.272-8.015.353-11.731.01a1.1,1.1,0,0,1-1.117-1.059,29.3,29.3,0,0,1-.01-4.467c.03-.484.148-1.109.682-1.24Z" transform="translate(472.149 436.704)" fill="#fff"/>
    <path id="Trazado_455" data-name="Trazado 455" d="M568.794,201.72c1.937-.3,3.36,2.128,3.676,3.822.346,1.946-.3,5.425-2.866,5.092-3.37-.444-4.349-8.339-.8-8.914Z" transform="translate(472.266 436.324)" fill="#fff"/>
    <path id="Trazado_456" data-name="Trazado 456" d="M578.614,201.72c2.036-.262,2.995,2.158,2.985,3.892-.02,2.057-1.651,5.8-4.2,4.921-3.084-1.079-2.066-8.389,1.216-8.8Z" transform="translate(472.161 436.324)" fill="#fff"/>
    <path id="Trazado_457" data-name="Trazado 457" d="M583.529,209.87c1.65-.313,2.441,1.18,2.392,2.672-.059,1.835-2.234,5.364-4.19,3.711C579.952,214.751,581.4,210.264,583.529,209.87Z" transform="translate(472.098 436.392)" fill="#fff"/>
    <path id="Trazado_458" data-name="Trazado 458" d="M563.4,209.87c3.113-.655,4.882,5.949,2.174,6.685C562.336,217.433,560.587,210.465,563.4,209.87Z" transform="translate(472.319 436.391)" fill="#fff"/>
  </g>
</svg>
