<svg xmlns="http://www.w3.org/2000/svg" width="51.444" height="45.106" viewBox="0 0 51.444 45.106">
  <g id="Grupo_6" data-name="Grupo 6" transform="translate(-934.822 -471.992)">
    <path id="Trazado_350" data-name="Trazado 350" d="M478.649,58.57c-.01,0-.019.009-.019.028a.02.02,0,0,0,.019.019c.019,0,.029-.009.029-.019A.025.025,0,0,0,478.649,58.57Z" transform="translate(477.848 428.69)" fill="#fff"/>
    <path id="Trazado_351" data-name="Trazado 351" d="M467.987,58.42a.057.057,0,0,0-.067.057.071.071,0,0,0,.058.057c.029,0,.067-.028.067-.057A.061.061,0,0,0,467.987,58.42Z" transform="translate(478.291 428.698)" fill="#fff"/>
    <path id="Trazado_357" data-name="Trazado 357" d="M478.67,69.55a.216.216,0,0,0-.22.218.23.23,0,0,0,.22.227.218.218,0,0,0,.221-.227A.2.2,0,0,0,478.67,69.55Z" transform="translate(477.855 428.113)" fill="#fff"/>
    <path id="Trazado_358" data-name="Trazado 358" d="M467.994,69.5a.138.138,0,0,0-.134.142.133.133,0,0,0,.134.142.142.142,0,1,0,0-.284Z" transform="translate(478.293 428.116)" fill="#fff"/>
    <path id="Trazado_394" data-name="Trazado 394" d="M456.059,65.816c.182-.246.22-.493.4-.749,1.256-1.7,3.4-3.4,4.822-5.06,1.7-1.99,3.029-4.709,4.716-6.651a2.668,2.668,0,0,1,2.061-1.042,36.065,36.065,0,0,1,6.078.047,3.315,3.315,0,0,1,.786.313l4.621,3.184-2.2,2.975-1.007-.55-.47,9.266c.058.483.6,1.251.566,1.7a15.011,15.011,0,0,1-.987,1.8c-.69,1.459-1.86,3.7-.355,4.993,1.2,1.042,2.416.4,3.767.114.048,1,.057,2.018.1,3.022a11.1,11.1,0,0,1,.086,1.971,32.2,32.2,0,0,1-1.4,3.392,3.854,3.854,0,0,0,.316,3.42,2.412,2.412,0,0,1-2.32-.455c-1.007-.872-.719-2.2-.805-3.382-.182-2.615-.3-5.249-.441-7.893l-1.812-4.851-1.61-.095c-.441-.019-1.7-.275-2,0l-2.809,5.751c-.786,2.947-1.122,6.092-1.917,9.039-.853,3.221-4.592,2.141-4.458-.341.844-3.136,1.131-6.689,2.051-9.787.642-2.2,2.435-4.614,3.259-6.812l.4-8.47-1.16,1.582c-1.735,1.563-3.269,3.809-5,5.325a1.977,1.977,0,0,1-3.288-.862v-.891Z" transform="translate(478.782 429.024)" fill="#fff"/>
    <path id="Trazado_395" data-name="Trazado 395" d="M476.731,75.089c-.546-.616.067-1.857.355-2.52a25.976,25.976,0,0,1,5.234-7.428c-.067-1.033.153-2.047.1-3.079,0-.114.067-.265-.1-.246A31.173,31.173,0,0,1,478.1,66.58l.22-5.5c1.678-1.895,3.029-4.425,4.707-6.272a3.413,3.413,0,0,1,2.08-1.213c7.161.5,14.293,1.563,21.445,2.264a1.838,1.838,0,0,1,.115,3.667l-14.274-1.687-.287.085-.345,7.3c2.425,3.354,7.094,3.942,11.005,3.733.911-.057,2.291-.436,3.106-.407a.854.854,0,0,1,.777,1.27c-.029.085-.968,1.109-1.122,1.279-2.569,2.6-7.18,6-11.005,5.979-2.253-.009-3.777-1.27-5.819-1.867a19.248,19.248,0,0,0-8.695-.341,12.035,12.035,0,0,1-2.809.493A1.961,1.961,0,0,1,476.731,75.089Z" transform="translate(477.935 428.951)" fill="#fff"/>
    <path id="Trazado_396" data-name="Trazado 396" d="M471.5,42.5c5.627-.7,6.413,7.589,1.17,8.2C467.03,51.347,466.205,43.151,471.5,42.5Z" transform="translate(478.29 429.536)" fill="#fff"/>
    <path id="Trazado_397" data-name="Trazado 397" d="M488.382,77.737c-1.534,3.193-2.675,6.594-4.2,9.8a2.756,2.756,0,0,1-1.16,1.544,2.116,2.116,0,0,1-3.125-2.312l4.084-9.607a13.819,13.819,0,0,1,4.4.587Z" transform="translate(477.797 427.715)" fill="#fff"/>
    <path id="Trazado_398" data-name="Trazado 398" d="M488.542,44.18c5.33-.057,5.378,7.93.086,7.949C483.318,52.139,483.385,44.237,488.542,44.18Z" transform="translate(477.598 429.446)" fill="#fff"/>
    <path id="Trazado_399" data-name="Trazado 399" d="M488.039,83.12c.058-.047.288.227.345.313a23.986,23.986,0,0,1,2.147,3.136,2.1,2.1,0,0,1-2.32,3.079c-1.007-.161-1.543-1.232-2.052-2.018l1.869-4.51Z" transform="translate(477.536 427.401)" fill="#fff"/>
    <path id="Trazado_400" data-name="Trazado 400" d="M482.391,77.15a21.172,21.172,0,0,1-1.4,2.975,5.01,5.01,0,0,1,.048-2.786l1.361-.189Z" transform="translate(477.758 427.714)" fill="#fff"/>
  </g>
</svg>
