<svg xmlns="http://www.w3.org/2000/svg" width="49.902" height="50.802" viewBox="0 0 49.902 50.802">
  <g id="Grupo_10" data-name="Grupo 10" transform="translate(-1021.042 -554.047)">
    <path id="Trazado_429" data-name="Trazado 429" d="M274.51,203.238c8.8.881,10.815,13.989,2.191,17.361l-2.191.6a15.329,15.329,0,0,1,6.276.8l1.495.691a41.831,41.831,0,0,0-8.791,3.675,38.315,38.315,0,0,0-8.7-3.675l1.495-.691a15.328,15.328,0,0,1,6.276-.8l-2.191-.6c-8.615-3.362-6.61-16.48,2.191-17.361a13.252,13.252,0,0,1,1.94,0Z" transform="translate(772.511 350.845)" fill="#fff"/>
    <path id="Trazado_430" data-name="Trazado 430" d="M300.572,233.986v7.141a2.955,2.955,0,0,1-4.688,1.771,3.193,3.193,0,0,1-1.142-2.017,50,50,0,0,1,0-6.46,2.919,2.919,0,0,1,4.753-2.169,3.811,3.811,0,0,1,1.077,1.724Z" transform="translate(770.372 349.344)" fill="#fff"/>
    <path id="Trazado_431" data-name="Trazado 431" d="M271.065,230.091v25.08a35.586,35.586,0,0,0-16.376-5.948,26.575,26.575,0,0,1-3.073-.142c-1.318-.313-1.058-1.894-1.068-2.927a5.971,5.971,0,0,0,5.848-5.7c.13-1.885.195-6.526-.353-8.183a5.9,5.9,0,0,0-5.486-3.969c-.009-1.1-.241-2.747,1.225-2.955a29.79,29.79,0,0,1,5.913.294,36.856,36.856,0,0,1,13.377,4.452Z" transform="translate(773.533 349.678)" fill="#fff"/>
    <path id="Trazado_432" data-name="Trazado 432" d="M275.789,230.091a36.784,36.784,0,0,1,14.343-4.565,26.459,26.459,0,0,1,4.948-.189c1.457.208,1.253,1.847,1.225,2.955a5.971,5.971,0,0,0-5.848,5.7c-.121,1.885-.195,6.526.353,8.183a5.892,5.892,0,0,0,5.486,3.969c-.056.966.288,2.226-.733,2.775-.622.35-2.553.218-3.4.294a35.8,35.8,0,0,0-16.385,5.948v-25.08Z" transform="translate(771.724 349.678)" fill="#fff"/>
    <path id="Trazado_433" data-name="Trazado 433" d="M249.8,231.638a2.99,2.99,0,0,1,3.425,2.6,43.759,43.759,0,0,1-.046,6.9,2.936,2.936,0,0,1-5.793-.256,46.427,46.427,0,0,1,.019-6.819,3.1,3.1,0,0,1,2.386-2.434Z" transform="translate(773.767 349.344)" fill="#fff"/>
  </g>
</svg>
