<svg xmlns="http://www.w3.org/2000/svg" width="44.785" height="42.104" viewBox="0 0 44.785 42.104">
  <g id="Grupo_9" data-name="Grupo 9" transform="translate(-934.345 -559.478)">
    <path id="Trazado_412" data-name="Trazado 412" d="M171.161,220.963c.722-.111,2.78.009,2.6,1.133-.19,1.2-1.273.276-1.877.249-.668-.018-.839.341-1.218.387a.745.745,0,0,1-.713-1.114c.135-.313.894-.608,1.209-.654Zm-3,6.225a3.746,3.746,0,0,1-.9-.4.816.816,0,0,1,.469-1.51c.4.046.587.451,1.3.414.668-.028,1.426-.939,1.922.064.641,1.335-1.986,1.565-2.789,1.418Zm-3.141-4.457a.756.756,0,0,1-.442-1.4,3.311,3.311,0,0,1,.839-.378c.74-.129,3.2.083,2.6,1.326-.451.939-1.164.092-1.778.064-.668-.018-.848.341-1.218.387Zm3.3-9.411a22.439,22.439,0,0,1-.009-3.306,1.634,1.634,0,0,1,.208-.589c.505-.506,1.173-.055,1.273.6a20.977,20.977,0,0,1,0,3.2.739.739,0,0,1-1.471.092Zm-3.348,1.611a.707.707,0,0,1-1.39-.184,23.7,23.7,0,0,1,.009-3.4.739.739,0,0,1,.523-.608.679.679,0,0,1,.857.6c.144,1.077-.108,2.468,0,3.591Zm8.06-3.306a1.819,1.819,0,0,1,.208-.681.746.746,0,0,1,1.273.405,25.029,25.029,0,0,1,0,3.49c-.135.875-1.336.81-1.471-.193A19.84,19.84,0,0,1,173.039,211.625Zm-2.265,5.525a6.435,6.435,0,0,1,1.191,0,42.316,42.316,0,0,1,4.955.746V213.32c.993-.866,1.995-1.593,1.345-3.085a3.124,3.124,0,0,0-2.771-1.6,17.909,17.909,0,0,1-2.744-.046c-.4-.12-.514-.884-.785-1.271-1.218-1.713-3.845-1.464-5.28-.193-.379.332-.993,1.39-1.237,1.464a16.634,16.634,0,0,1-2.554.046c-1.552.12-3.24,1.059-3,2.873.108.847.957,1.243,1.471,1.8v4.577a43.737,43.737,0,0,1,4.865-.746,5.087,5.087,0,0,1,1.805.055.755.755,0,0,1-.171,1.317,16.447,16.447,0,0,1-2.094.138,7.57,7.57,0,0,0-1.236.2,4.341,4.341,0,0,1-3.141,3.978c-.352,3.066,1.868,5.636,4.305,7.045a5.85,5.85,0,0,0,6.3.322c2.753-1.271,5.19-4.125,4.928-7.376a4.169,4.169,0,0,1-3.141-3.969l-3.051-.341a.727.727,0,0,1,.054-1.372Z" transform="translate(788.934 353.378)" fill="#fff"/>
    <path id="Trazado_413" data-name="Trazado 413" d="M165.269,239.87c.271,1.446-.587,3.3-1.408,4.475h0c-3.746,5.405-13.62,4.079-15.732-2.164-.217-.663-.578-1.694-.235-2.311Z" transform="translate(790.114 350.705)" fill="#fff"/>
    <path id="Trazado_414" data-name="Trazado 414" d="M180.612,248.655c-.009.046-.054.046-.108.046h-3.249c-5.93.009-8.854.028-12.807.018-.433-.009-.5-.2-.28-.6a4.506,4.506,0,0,1,.885-1.105,10.654,10.654,0,0,0,2.166-2.809,1.174,1.174,0,0,1,1.092-.774c1.236-.009,2.545-.092,3.159-1.206.4-.691.307-.727,1.182-.709,1.191,0,2.807-.009,4.089-.009h1.931a.854.854,0,0,1,.866.6,5.892,5.892,0,0,1,.2,1.041c.235,1.39.5,2.965.713,4.319a10.934,10.934,0,0,1,.171,1.188h0Z" transform="translate(788.527 350.576)" fill="#fff"/>
    <path id="Trazado_415" data-name="Trazado 415" d="M188.086,220.274a24.48,24.48,0,0,1,3.583-.009,1.438,1.438,0,0,1,1.083,1.455,46.655,46.655,0,0,1,0,6.05,1.42,1.42,0,0,1-1.354,1.372,12.11,12.11,0,0,1-3.592-.2,1.247,1.247,0,0,1-.623-.976c-.2-2.118.144-4.558.009-6.7a1.281,1.281,0,0,1,.894-.985Z" transform="translate(786.279 352.262)" fill="#fff"/>
    <path id="Trazado_416" data-name="Trazado 416" d="M185.7,248.215h-1.95l-1.155-6.906a2.416,2.416,0,0,0-1.255-1.648v-4.3a5.285,5.285,0,0,1,4.062,3.665,28.978,28.978,0,0,1,.83,3.582c0,.193-.523.939-.523,1.308v4.3Z" transform="translate(786.842 351.062)" fill="#fff"/>
    <path id="Trazado_417" data-name="Trazado 417" d="M188.514,243.886a8.885,8.885,0,0,1,1.643-.018,2.313,2.313,0,0,1,1.959,1.6,23.681,23.681,0,0,1,0,4.079,2.373,2.373,0,0,1-1.534,1.565,8.982,8.982,0,0,1-2.166.018.942.942,0,0,1-.6-.608l-.009-5.838a.937.937,0,0,1,.7-.792Z" transform="translate(786.211 350.391)" fill="#fff"/>
    <path id="Trazado_418" data-name="Trazado 418" d="M175.019,235.97v3.591h-3.43c-.045-.525-1.173-1.418-1.616-1.418H164.08V235.97a10.527,10.527,0,0,0,10.93,0Z" transform="translate(788.523 351.014)" fill="#fff"/>
    <path id="Trazado_419" data-name="Trazado 419" d="M174.122,233.209l.659.792a5.532,5.532,0,0,1-3.141,1.611c-2.365.46-5.406.239-7.23-1.529l.776-.884c2.148,1.243,3.89,1.777,6.336,1.068.921-.267,1.715-.783,2.608-1.059Z" transform="translate(788.491 351.233)" fill="#fff"/>
    <path id="Trazado_420" data-name="Trazado 420" d="M179.61,239.479h-1.76V234.93a4.828,4.828,0,0,1,1.76.239Z" transform="translate(787.182 351.096)" fill="#fff"/>
    <path id="Trazado_421" data-name="Trazado 421" d="M158.55,238.095h-3.7a5.321,5.321,0,0,1,3.7-2.735Z" transform="translate(789.423 351.062)" fill="#fff"/>
    <path id="Trazado_422" data-name="Trazado 422" d="M162.36,234.94v3.122H160.6v-3.03Z" transform="translate(788.863 351.095)" fill="#fff"/>
    <path id="Trazado_423" data-name="Trazado 423" d="M168.6,241.85a4.489,4.489,0,0,0,.19-1.98h1.345a2.134,2.134,0,0,1,.56.378,1.3,1.3,0,0,1,0,1.234,2.39,2.39,0,0,1-.56.378H168.6Z" transform="translate(788.083 350.705)" fill="#fff"/>
    <path id="Trazado_424" data-name="Trazado 424" d="M145.989,239.87a3.477,3.477,0,0,0,.19,1.98h-1.534c-.316,0-.794-.645-.794-.995s.478-.985.794-.985h1.345Z" transform="translate(790.495 350.705)" fill="#fff"/>
    <path id="Trazado_425" data-name="Trazado 425" d="M178.58,222.337a2.513,2.513,0,0,1-1.76-2.127l1.76.378Z" transform="translate(787.282 352.261)" fill="#fff"/>
    <path id="Trazado_426" data-name="Trazado 426" d="M161.52,220.584l1.625-.424a2.212,2.212,0,0,1-1.625,2.182v-1.75Z" transform="translate(788.773 352.265)" fill="#fff"/>
    <path id="Trazado_427" data-name="Trazado 427" d="M189.28,242.708V227.68h1.769v15.931Z" transform="translate(786.068 351.67)" fill="#fff"/>
  </g>
</svg>
