<svg xmlns="http://www.w3.org/2000/svg" width="46.966" height="48.37" viewBox="0 0 46.966 48.37">
  <g id="Grupo_7" data-name="Grupo 7" transform="translate(-1019.299 -472.469)">
    <path id="Trazado_402" data-name="Trazado 402" d="M558.72,73.846c1.008-.494,2.046-.977,3.1-1.378,2.147-.8,3.377-.967,5.463.134,3.77,1.975,7.439,4.587,11.149,6.675,2.843,2.376.9,7.446-2.853,6.078l-6.31-3.713a.768.768,0,0,0-.675,1.378c2.026,1.039,3.972,2.561,5.988,3.558a4.487,4.487,0,0,0,6.552-2.911l12.268-3.342a3.433,3.433,0,0,1,1.582,6.644l-21.027,5.687c-3.125.237-7.268-3.024-10.141-4.361a7.112,7.112,0,0,0-5.09-.576V73.846Z" transform="translate(468.977 428.17)" fill="#fff"/>
    <path id="Trazado_403" data-name="Trazado 403" d="M576.7,67.748l2.117-3.229a5.806,5.806,0,0,1,.222-5.482c2.591-4.577,9.989-5.986,14.727-6,.292,0,.595.165.917.1-.343.35-.746.658-1.058,1.039-2.752,3.394-3.437,12.619-8.568,13.061-1.835.154-3.568-.751-5.151-1.553a16.362,16.362,0,0,0-3.074,6.973,11.087,11.087,0,0,1-.282,2.17.769.769,0,0,1-1.3.062c-.312-.442-.06-1.933.03-2.53.07-.494.353-1.183.363-1.615a21.665,21.665,0,0,0-.625-3.528,27.594,27.594,0,0,0-2.873-7.826l-.131-.031c-1.915.843-4.224,1.388-6.119.206-4.133-2.561-3.135-11.251-6.713-14.511A25.2,25.2,0,0,1,569.6,48c3.629,2.1,7.026,6.3,3.911,10.449v.144a29.6,29.6,0,0,1,3.175,9.153Z" transform="translate(468.98 427.409)" fill="#fff"/>
    <path id="Trazado_404" data-name="Trazado 404" d="M551.317,70.993a32.415,32.415,0,0,1,4.9-.021,1.259,1.259,0,0,1,.988.874l.05,18.018a1.158,1.158,0,0,1-.847,1.018,33.771,33.771,0,0,1-5.1.01,1.108,1.108,0,0,1-.9-.843l-.02-17.926a1.263,1.263,0,0,1,.948-1.111Z" transform="translate(468.91 428.144)" fill="#fff"/>
  </g>
</svg>
