<svg xmlns="http://www.w3.org/2000/svg" width="49.296" height="49.958" viewBox="0 0 49.296 49.958">
  <g id="Grupo_3" data-name="Grupo 3" transform="translate(-933.722 -389.03)">
    <g id="Grupo_1" data-name="Grupo 1">
      <path id="Trazado_378" data-name="Trazado 378" d="M147.58,80.226a2.183,2.183,0,0,1,2.366-1.721l6.11,1.835,1.32-6.679a7.389,7.389,0,0,1,.205-2.02l3.676-9-2.4.052c-.205,1.659-.352,3.35-.587,5.009-.166,1.2-.156,2.834-1.6,3.092-1.33.237-2.1-.835-2.043-2.154.117-2.649.89-5.617,1.095-8.3.567-1.628,1.809-1.237,3.1-1.288,1.642-.082,3.353-.175,5-.216,2.473-.031,6.11,1.2,6.228,4.319.01.453-.205,1.01-.166,1.309.049.536.645,1.474.645,2.092l6.325-3.834a1.833,1.833,0,0,1,1.271,3.36c-2.209,1.783-5.485,3.144-7.821,4.844a1.639,1.639,0,0,1-1.926-.433,3.119,3.119,0,0,1-.42-.876c-.068-.124,0-.175-.215-.134l-2.473,6.143,3.92,3.752a2.409,2.409,0,0,1,.479,1.927L167.309,94.45A2.131,2.131,0,0,1,163.115,94l2.1-12.255-3.94-3.659-.372-.165c-.274,1.628-.538,3.278-.9,4.9-.411,1.8-.919,3.051-2.972,2.587-2.737-.608-5.621-1.907-8.349-2.669a2.939,2.939,0,0,1-1.066-1.464v-1.02Z" transform="translate(786.142 342.936)" fill="#fff"/>
      <path id="Trazado_379" data-name="Trazado 379" d="M188.928,62.489l5.768-3.607c2.063-1.02,3.676,1.649,1.75,3.164-2.3,1.8-5.455,3.205-7.88,4.885a1.652,1.652,0,0,1-1.985-.68c-.186-.278-.2-.639-.44-.814l-2.483,6.132,3.93,3.865a2.81,2.81,0,0,1,.489,1.525c-.8,4.02-1.33,8.132-2.161,12.152a5.294,5.294,0,0,1-.587,2.01,2.127,2.127,0,0,1-3.862-1.278l2.082-11.873-.088-.392-4.145-3.8L178.057,80.1c-1.095,2.773-4.624.423-6.521.031-.645-2.36-3.08-3.566-4.546-5.349a4.873,4.873,0,0,1,.929-.289c1.359-.144,4.663,1.484,6.267,1.783a1,1,0,0,0,.3.021l1.212-6.38c2.034-1.835,5.485-2.267,5.142-5.844a3.167,3.167,0,0,0-2.317-2.69l1.154-2.834-2.4.124-.381,2.577a32.917,32.917,0,0,0-3.754,2.175l.909-7.019A1.84,1.84,0,0,1,175.6,55c2.415-.278,5.162.124,7.6-.216,2.024.371,4.878,1.412,5.152,3.927.068.587-.127,1.237-.088,1.711.029.587.577,1.474.675,2.082Z" transform="translate(785.708 342.812)" fill="#fff"/>
      <path id="Trazado_380" data-name="Trazado 380" d="M169.141,50.571c5.514-.742,6.325,8.029,1.027,8.586C164.771,59.724,164.008,51.252,169.141,50.571Z" transform="translate(785.737 342.681)" fill="#fff"/>
      <path id="Trazado_381" data-name="Trazado 381" d="M190.911,53.973c-3.92,3.906-9.522-2.309-5.69-6.246C189.082,43.77,194.811,50.1,190.911,53.973Z" transform="translate(785.329 342.557)" fill="#fff"/>
    </g>
  </g>
</svg>
