<svg xmlns="http://www.w3.org/2000/svg" width="48.624" height="46.4" viewBox="0 0 48.624 46.4">
  <g id="Grupo_12" data-name="Grupo 12" transform="translate(-935.165 -641.527)">
    <path id="Trazado_440" data-name="Trazado 440" d="M474.532,252.571c.147-2.224-.178-4.648,0-6.842a5.213,5.213,0,0,1,4.722-4.578l.126.02a5.858,5.858,0,0,0,8.637,0,5.162,5.162,0,0,1,4.607,4.818c.147,2.134-.136,4.429-.01,6.583h-18.07Z" transform="translate(475.865 435.356)" fill="#fff"/>
    <path id="Trazado_441" data-name="Trazado 441" d="M461.092,246.629a4.535,4.535,0,0,1,3.989-4.079,13.563,13.563,0,0,1,1.12.848,5.282,5.282,0,0,0,6.072-.259c.45-.329.356-.638,1.1-.5.209.03,1.173.379,1.225.559l-.66,1.985v5.805l-.146.14H461.228l-.136-.14c.094-1.406-.136-2.962,0-4.359Z" transform="translate(475.234 435.353)" fill="#fff"/>
    <path id="Trazado_442" data-name="Trazado 442" d="M505.755,251.128H493.014v-5.665a9.6,9.6,0,0,0-.356-1.386c-.1-.3-.3-.569-.4-.868a3.877,3.877,0,0,1,1.853-.648,5.352,5.352,0,0,0,7.077.638,7.241,7.241,0,0,1,.586-.549c.607-.269,2.251.7,2.712,1.137a5.176,5.176,0,0,1,1.277,2.494v4.857Z" transform="translate(476.7 435.353)" fill="#fff"/>
    <path id="Trazado_443" data-name="Trazado 443" d="M472.847,222.33v-2.893l-7.381,2.8c-.178.259.052,3.94-.052,4.668-.387,2.863-5.894,2.613-5.4-.718.23-1.566,2.764-2.294,4.073-1.5v-6.3a.783.783,0,0,1,.356-.379l9.109-3.371a.71.71,0,0,1,.628.768c-.209,2.873.251,6.044-.01,8.887-.209,2.394-3.57,3.092-5.036,1.267-1.728-2.174,1.56-4.359,3.706-3.222Z" transform="translate(475.185 435.425)" fill="#fff"/>
    <path id="Trazado_444" data-name="Trazado 444" d="M505.636,219.88v-2.893l-7.4,2.733-.031,4.808c-.754,2.922-5.926,2.234-5.371-.858.283-1.576,2.7-2.234,4.073-1.516V215.94c0-.439,1.926-1.027,2.345-1.207,2.314-.888,4.68-1.746,7.015-2.563.471-.01.733.219.722.688-.209,2.892.251,6.1,0,8.977-.241,2.673-4.429,2.962-5.34.718-.879-2.164,2.136-3.79,4-2.673Z" transform="translate(476.725 435.431)" fill="#fff"/>
    <path id="Trazado_445" data-name="Trazado 445" d="M481.629,209.76a.739.739,0,0,1,.3-.339l9.056-3.341a.586.586,0,0,1,.618.688c-.22,2.952.283,6.244,0,9.156-.22,2.314-3.759,2.783-5.088.948-1.529-2.134,1.759-4.3,3.748-3.082V210.9l-7.308,2.733c-.241,1.606.555,4.638-.68,5.895-1.937,1.965-6.02.03-4.544-2.5.764-1.3,2.544-1.456,3.895-.958Z" transform="translate(476.003 435.447)" fill="#fff"/>
    <path id="Trazado_446" data-name="Trazado 446" d="M486.571,228.107c1.56,1.486,1.549,3.92,1.371,5.895-.408,4.578-6.983,5.576-8.8,1.406A12.546,12.546,0,0,1,478.97,230c.879-3.132,5.214-4.169,7.6-1.885Z" transform="translate(476.066 435.393)" fill="#fff"/>
    <path id="Trazado_447" data-name="Trazado 447" d="M468.026,230.09c4.167-.529,4.984,2.932,4.68,6.094-.44,4.588-7.486,4.748-7.894-.279C464.634,233.6,465.042,230.469,468.026,230.09Z" transform="translate(475.409 435.385)" fill="#fff"/>
    <path id="Trazado_448" data-name="Trazado 448" d="M497.094,230.09c4.261-.579,5.025,3.092,4.669,6.264-.471,4.329-7.276,4.309-7.768.17-.3-2.424-.126-6,3.1-6.443Z" transform="translate(476.777 435.385)" fill="#fff"/>
  </g>
</svg>
