<svg xmlns="http://www.w3.org/2000/svg" width="43.292" height="42.756" viewBox="0 0 43.292 42.756">
  <g id="Grupo_4" data-name="Grupo 4" transform="translate(-1024.354 -392.622)">
    <path id="Trazado_382" data-name="Trazado 382" d="M299.349,76.18c-.019,0-.029.01-.029.019a.025.025,0,0,0,.029.029c.01,0,.019-.01.019-.029A.021.021,0,0,0,299.349,76.18Z" transform="translate(768.278 345.194)" fill="#fff"/>
    <path id="Trazado_383" data-name="Trazado 383" d="M267.462,64.96a.174.174,0,0,0-.162.185.156.156,0,0,0,.162.165.169.169,0,0,0,.162-.165A.2.2,0,0,0,267.462,64.96Z" transform="translate(769.819 345.517)" fill="#fff"/>
    <path id="Trazado_384" data-name="Trazado 384" d="M267.583,53.94a.52.52,0,1,0,.495.534A.515.515,0,0,0,267.583,53.94Z" transform="translate(769.83 345.835)" fill="#fff"/>
    <path id="Trazado_386" data-name="Trazado 386" d="M285.412,75.21l3.551,1.68a.974.974,0,0,0,.885-1.583,8.529,8.529,0,0,0-.942-.787c-.761-.505-1.8-.884-2.589-1.369l-.133-.01c-.067.019-.086.078-.133.126-.048.068-.685,1.457-.7,1.534A.472.472,0,0,0,285.412,75.21Zm-6.825-5.477a13.707,13.707,0,0,0-1.533,1.029.419.419,0,0,0-.057.408c.609.651,1.647,2.923,2.323,3.3a.953.953,0,0,0,1.39-1.1,8.139,8.139,0,0,0-.476-1.263c-.4-.767-1.1-1.525-1.5-2.311l-.143-.068Zm8.2-2.768h-4.7l-2.066,1.719a18.618,18.618,0,0,0,1.171,1.8c.048.049.076.087.152.078l5.026-2.719a1.15,1.15,0,0,0,.409-.864Zm2.2,5.584c1.152-2.195,2.694-4.254,3.884-6.429s.324-4.38-2.2-4.584c-2.342-.185-5.112-.029-7.52-.087a7.693,7.693,0,0,0-1.59.049,10.262,10.262,0,0,0-.885.932,1.787,1.787,0,0,0,1.085,2.787c1.875.223,4.217-.2,6.14,0,.628.058,1.1.359.98,1.088l-2,5.2,2.113,1.049Zm-6.444-12.771c1.6-.049,3.208.2,4.817.049,1.066-1.544,2.532-2.875,3.37-4.555l.057-.408a3.9,3.9,0,0,1-.819.544c-1.323.563-1.97.01-3.217-.049a7.586,7.586,0,0,0-2.332.3l-1.875,4.118Zm4.055-8.566c-3.769.068-6.625,2.593-9.528,4.691a.939.939,0,0,0,1.066,1.5c3.056-1.884,5.264-4.03,9.1-3.72.866.078,1.9.67,2.532-.253a1.3,1.3,0,0,0-.124-1.612c-.486-.5-2.351-.622-3.037-.612Zm6.044-2.846c-1.856.32-1.97,3.516.076,3.885C295.816,52.8,295.911,47.794,292.637,48.367Zm.914-1.787a3.926,3.926,0,0,1,2.989,2.428,3.679,3.679,0,0,1-4.046,4.914c.314,2.544-1.78,4.06-3.017,5.934h1.761a6.775,6.775,0,0,1,1.485.486,4.587,4.587,0,0,1,1.837,6.157l-4.255,7c2.665,1.554,1.19,5.749-1.828,5.031a26.349,26.349,0,0,1-3.684-1.748c-2.256-1.34-.523-3.438.209-5.108.2-.476.371-.981.552-1.476l-3.484,1.933c.029.359.257.67.3,1.039.276,2.506-2.37,4.128-4.245,2.506a25.754,25.754,0,0,1-2.741-4.05c-.609-1.981,1.732-2.875,2.97-3.8.619-.466,1.19-1.02,1.8-1.5a3.507,3.507,0,0,1-.914-4.768c.371-.583,1.047-1.039,1.361-1.534.495-.777.819-2.107,1.285-2.952-.086-.049-.276.087-.352.146-.961.583-2.542,1.894-3.627,1.971a2.649,2.649,0,0,1-2.3-4.108,27.868,27.868,0,0,1,4.388-3.37,12,12,0,0,1,9.566-1.865,3.8,3.8,0,0,1,3.189-3.263,5.755,5.755,0,0,1,.819,0Z" transform="translate(769.441 346.047)" fill="#fff"/>
    <path id="Trazado_387" data-name="Trazado 387" d="M253.89,69.175c.2-.223.352-.5.695-.5l16.458.029a.8.8,0,0,1,.485.68c.228,1.952-.162,4.341,0,6.342a.815.815,0,0,1-1.257.554,1.628,1.628,0,0,1-.371-.466V70.35H255.527V88.22H269.9V82.83a1.427,1.427,0,0,1,.333-.408.811.811,0,0,1,1.3.5v6.342a1.074,1.074,0,0,1-.657.709H253.89Z" transform="translate(770.464 345.41)" fill="#fff"/>
    <path id="Trazado_388" data-name="Trazado 388" d="M271.511,78.76a.864.864,0,0,1,.428,1.6C270.768,81.042,270.14,78.847,271.511,78.76Z" transform="translate(769.654 345.119)" fill="#fff"/>
  </g>
</svg>
