<?xml version="1.0" encoding="UTF-8"?>
<!DOCTYPE svg PUBLIC "-//W3C//DTD SVG 1.1//EN" "http://www.w3.org/Graphics/SVG/1.1/DTD/svg11.dtd">
<!-- Creator: CorelDRAW -->
<svg xmlns="http://www.w3.org/2000/svg" xml:space="preserve" width="7.2422mm" height="7.2254mm" version="1.1" style="shape-rendering:geometricPrecision; text-rendering:geometricPrecision; image-rendering:optimizeQuality; fill-rule:evenodd; clip-rule:evenodd"
viewBox="0 0 79.79 79.61"
 xmlns:xlink="http://www.w3.org/1999/xlink"
 xmlns:xodm="http://www.corel.com/coreldraw/odm/2003">
 <defs>
  <style type="text/css">
   <![CDATA[
    .fil0 {fill:#FF9805;fill-rule:nonzero}
   ]]>
  </style>
 </defs>
 <g id="Capa_x0020_1">
  <metadata id="CorelCorpID_0Corel-Layer"/>
  <path class="fil0" d="M9.6 0c5.29,0 9.58,4.3 9.58,9.58 0,5.28 -4.29,9.59 -9.58,9.59 -5.31,0 -9.6,-4.3 -9.6,-9.59 0,-5.28 4.29,-9.58 9.6,-9.58zm-8.28 26.43l16.55 0 0 53.18 -16.55 0 0 -53.18z"/>
  <path class="fil0" d="M28.25 26.43l15.85 0 0 7.27 0.22 0c2.21,-4.19 7.6,-8.59 15.65,-8.59 16.74,0 19.82,11.01 19.82,25.33l0 29.17 -16.52 0 0 -25.86c0,-6.17 -0.12,-14.1 -8.59,-14.1 -8.6,0 -9.91,6.72 -9.91,13.65l0 26.31 -16.52 0 0 -53.18z"/>
 </g>
</svg>
