<svg id="Icons" viewBox="0 0 60 60" xmlns="http://www.w3.org/2000/svg"><path d="m52 43v14a2.006 2.006 0 0 1 -2 2h-40a2.006 2.006 0 0 1 -2-2v-14l1-1h42z" fill="#f24652"/><path d="m52 14v29h-44v-40a2.006 2.006 0 0 1 2-2h29a1.275 1.275 0 0 1 .2.01 4.511 4.511 0 0 1 3.2 1.39l8.2 8.2a4.511 4.511 0 0 1 1.39 3.2 1.275 1.275 0 0 1 .01.2z" fill="#e9edf3"/><path d="m51.99 13.8a2.006 2.006 0 0 0 -1.99-1.8h-6a3 3 0 0 1 -3-3v-6a2.006 2.006 0 0 0 -1.8-1.99 4.511 4.511 0 0 1 3.2 1.39l8.2 8.2a4.511 4.511 0 0 1 1.39 3.2z" fill="#c1cfdd"/><circle cx="30" cy="25" fill="#f24652" r="14"/><path d="m35.71 27.68-5.01 5.03a.984.984 0 0 1 -1.4 0l-5.01-5.03a.985.985 0 0 1 .7-1.68h2.01v-8a1 1 0 0 1 1-1h4a1 1 0 0 1 1 1v8h2.01a.985.985 0 0 1 .7 1.68z" fill="#c42f41"/><g fill="#262626"><path d="m45 25a15 15 0 1 0 -15 15 15.017 15.017 0 0 0 15-15zm-28 0a13 13 0 1 1 13 13 13.015 13.015 0 0 1 -13-13z"/><path d="m36.417 28.387a1.985 1.985 0 0 0 -1.407-3.387h-1.01v-7a2 2 0 0 0 -2-2h-4a2 2 0 0 0 -2 2v7h-1.01a1.985 1.985 0 0 0 -1.408 3.386l5.011 5.032a2 2 0 0 0 2.816 0zm-11.427-1.387h2.01a1 1 0 0 0 1-1v-8h4v8a1 1 0 0 0 1 1l2.007-.032-4.999 5.032z"/><path d="m10 60h40a3 3 0 0 0 3-3v-43a5.547 5.547 0 0 0 -1.694-4.108l-8.2-8.2a5.547 5.547 0 0 0 -4.106-1.692h-29a3 3 0 0 0 -3 3v5a1 1 0 0 0 2 0v-5a1 1 0 0 1 1-1h29a1 1 0 0 1 1 1v6a4 4 0 0 0 4 4h6a1 1 0 0 1 1 1v28h-42v-30a1 1 0 0 0 -2 0v45a3 3 0 0 0 3 3zm32-51v-5.586l7.586 7.586h-5.586a2 2 0 0 1 -2-2zm9 35v13a1 1 0 0 1 -1 1h-40a1 1 0 0 1 -1-1v-13z"/><path d="m19 56a1 1 0 0 0 1-1v-3h2a3 3 0 0 0 0-6h-3a1 1 0 0 0 -1 1v8a1 1 0 0 0 1 1zm1-8h2a1 1 0 0 1 0 2h-2z"/><path d="m37 56a1 1 0 0 0 1-1v-3h2a1 1 0 0 0 0-2h-2v-2h4a1 1 0 0 0 0-2h-5a1 1 0 0 0 -1 1v8a1 1 0 0 0 1 1z"/><path d="m28 56h3a3 3 0 0 0 3-3v-4a3 3 0 0 0 -3-3h-3a1 1 0 0 0 -1 1v8a1 1 0 0 0 1 1zm1-8h2a1 1 0 0 1 1 1v4a1 1 0 0 1 -1 1h-2z"/></g></svg>