<svg xmlns="http://www.w3.org/2000/svg" width="113.792" height="120.642" viewBox="0 0 113.792 120.642">
  <g id="think_1623078" transform="translate(-0.152)">
    <path id="Trazado_801" data-name="Trazado 801" d="M104.9,460.575l.655-.277-1.408-3.732-.654.278a20.654,20.654,0,0,1-16.25,0l-.654-.278L85.183,460.3l.653.275a24.224,24.224,0,0,0,19.065,0Zm0,0" transform="translate(-64.873 -341.887)" fill="#0b77b3"/>
    <path id="Trazado_802" data-name="Trazado 802" d="M319.241,456.573l-.654-.277-1.411,3.729.655.28a24.234,24.234,0,0,0,19.067,0l.655-.277-1.411-3.729-.652.277a20.65,20.65,0,0,1-16.248,0Zm0,0" transform="translate(-241.868 -341.685)" fill="#0b77b3"/>
    <path id="Trazado_803" data-name="Trazado 803" d="M119.324,280.65c-.681-7.086-6.343-12.632-13.207-12.632v-.086a12.6,12.6,0,0,0-6.416,1.76A12.978,12.978,0,0,0,89.048,264a12.712,12.712,0,0,0-7.586,2.536A12.712,12.712,0,0,0,73.876,264a13,13,0,0,0-10.653,5.689,12.521,12.521,0,0,0-6.416-1.758,1.622,1.622,0,0,0-.559.1c-6.61.291-11.985,5.727-12.646,12.618a13.92,13.92,0,0,0-9.553,13.493,14.624,14.624,0,0,0,.945,5.1l-.573-.121a1.81,1.81,0,0,0-1.574.416,2.058,2.058,0,0,0-.694,1.555v17.166h3.793V303.537l22.51,4.77a122.582,122.582,0,0,0,46.1.947l22.425-3.8v12.8h3.793V303.1a2.061,2.061,0,0,0-.666-1.53,1.805,1.805,0,0,0-1.531-.455l-1.634.277a14.5,14.5,0,0,0,1.935-7.248,13.917,13.917,0,0,0-9.551-13.491Zm-39.759,2.512c-6.424.98-11.379,6.834-11.379,13.905h3.793a9.94,9.94,0,0,1,7.586-9.844v19.638a119.421,119.421,0,0,1-20.366-2.5l-1.674-.355a14.573,14.573,0,0,0,3.074-8.95H56.807a10.3,10.3,0,0,1-3.759,8.005l-13.278-2.813c-.029-.048-.032-.1-.063-.147a10.343,10.343,0,0,1-1.866-5.963,9.85,9.85,0,0,1,7.907-9.894,2.182,2.182,0,0,0,1.576-2.163c0-5.514,4.214-10,9.409-10.047a1.508,1.508,0,0,0,.657-.069,9.064,9.064,0,0,1,5.238,2.112,1.811,1.811,0,0,0,1.569.38,1.916,1.916,0,0,0,1.28-1.033,9.406,9.406,0,0,1,8.4-5.409,9.08,9.08,0,0,1,5.69,2.078ZM123.216,300.1a2.1,2.1,0,0,0-.317,1.679c.02.088.019.2.036.285l-12.288,2.084.212-.39a10.213,10.213,0,0,1-4.741-8.7h-3.793a14.553,14.553,0,0,0,3.816,9.856l-2.187.37a119.018,119.018,0,0,1-20.6,1.662v-8.09a12.884,12.884,0,0,0,9.483,4.242v-4.019c-5.228,0-9.483-4.507-9.483-10.047V270.1a9.08,9.08,0,0,1,5.69-2.078,9.274,9.274,0,0,1,7.628,4.107A14.455,14.455,0,0,0,92.843,282h3.793a10.221,10.221,0,0,1,3.575-7.8c.036-.027.08-.028.114-.057a9.054,9.054,0,0,1,5.792-2.108,9.776,9.776,0,0,1,9.485,9.985c0,.031-.009.177-.009.209a1.979,1.979,0,0,0,1.584,2.013,9.854,9.854,0,0,1,7.907,9.9,10.343,10.343,0,0,1-1.866,5.963Zm0,0" transform="translate(-24.414 -197.689)" fill="#0b77b3"/>
    <path id="Trazado_804" data-name="Trazado 804" d="M169.847,32a1.908,1.908,0,0,0-1.8,1.379l-1.094,3.5-1.167.513-2.926-1.473a1.815,1.815,0,0,0-1.914.177,21.545,21.545,0,0,0-4.928,5.223,2.1,2.1,0,0,0-.167,2.025l1.39,3.1-.484,1.236-3.3,1.159a2,2,0,0,0-1.3,1.909v6.713a2,2,0,0,0,1.3,1.907l3.3,1.159.484,1.236-1.391,3.1a2.115,2.115,0,0,0,.168,2.027,21.516,21.516,0,0,0,4.93,5.223,1.807,1.807,0,0,0,1.912.177l2.926-1.473,1.166.513,1.095,3.5a1.91,1.91,0,0,0,1.8,1.379h6.336a1.908,1.908,0,0,0,1.8-1.379l1.068-3.42q.639-.25,1.263-.556l2.856,1.436a1.8,1.8,0,0,0,1.911-.177,21.46,21.46,0,0,0,4.929-5.223,2.1,2.1,0,0,0,.167-2.025l-1.356-3.026q.288-.658.523-1.338l3.23-1.131a2,2,0,0,0,1.3-1.909V50.748a2,2,0,0,0-1.3-1.907l-3.228-1.131q-.236-.678-.525-1.338l1.358-3.026a2.113,2.113,0,0,0-.167-2.027,21.531,21.531,0,0,0-4.929-5.223,1.8,1.8,0,0,0-1.913-.177l-2.856,1.438q-.621-.3-1.263-.556l-1.068-3.422a1.91,1.91,0,0,0-1.8-1.379ZM177,40.3a13.081,13.081,0,0,1,2.409,1.06,1.811,1.811,0,0,0,1.707.042l2.648-1.334a17.743,17.743,0,0,1,2.5,2.652L185,45.527a2.121,2.121,0,0,0,.04,1.808,14.881,14.881,0,0,1,1,2.55,1.96,1.96,0,0,0,1.217,1.323l2.824.99v3.811l-2.826.99a1.961,1.961,0,0,0-1.217,1.321,14.9,14.9,0,0,1-1,2.552,2.116,2.116,0,0,0-.04,1.806l1.258,2.805a17.528,17.528,0,0,1-2.5,2.65L181.109,66.8a1.805,1.805,0,0,0-1.707.042,13.024,13.024,0,0,1-2.409,1.06,1.95,1.95,0,0,0-1.246,1.289l-.935,3h-3.6l-.934-2.995a1.974,1.974,0,0,0-1.073-1.224l-2.748-1.208a1.8,1.8,0,0,0-1.54.042l-2.648,1.332a17.728,17.728,0,0,1-2.5-2.65l1.259-2.805a2.121,2.121,0,0,0,.04-1.632l-1.14-2.91A1.95,1.95,0,0,0,158.773,57l-2.827-.994V52.2l2.825-.99a1.947,1.947,0,0,0,1.156-1.137l1.14-2.91a2.121,2.121,0,0,0-.04-1.632l-1.258-2.807a17.621,17.621,0,0,1,2.5-2.65l2.648,1.334a1.8,1.8,0,0,0,1.54.042l2.746-1.208a1.97,1.97,0,0,0,1.074-1.224l.938-3h3.6l.935,2.995A1.957,1.957,0,0,0,177,40.3Zm0,0" transform="translate(-115.966 -23.962)" fill="#0b77b3"/>
    <path id="Trazado_805" data-name="Trazado 805" d="M192.152,84.057c0,6.649,5.1,12.057,11.379,12.057s11.379-5.407,11.379-12.057S209.807,72,203.531,72s-11.379,5.407-11.379,12.057Zm18.965,0a7.6,7.6,0,1,1-7.586-8.038A7.829,7.829,0,0,1,211.117,84.057Zm0,0" transform="translate(-146.483 -53.915)" fill="#0b77b3"/>
    <path id="Trazado_806" data-name="Trazado 806" d="M273.372,11.722c9.481,3.838,15.849,13.638,15.849,24.387S282.853,56.657,273.372,60.5a2,2,0,0,0-1.218,1.792,2.029,2.029,0,0,0,1.07,1.9l7.586,3.878,1.648-3.619-4-2.048a30.665,30.665,0,0,0,14.558-26.285c0-12.4-7.349-23.711-18.288-28.14Zm0,0" transform="translate(-207.518 -5.968)" fill="#0b77b3"/>
    <path id="Trazado_807" data-name="Trazado 807" d="M120.152,30.244c0,12.4,7.349,23.711,18.288,28.14l1.354-3.753c-9.481-3.838-15.849-13.638-15.849-24.387S130.313,9.7,139.794,5.857A2.02,2.02,0,0,0,141.006,3.8,1.973,1.973,0,0,0,139.465,2L129.982.137l-.695,3.95,3.988.786a30.8,30.8,0,0,0-13.124,25.371Zm0,0" transform="translate(-91.552 -0.102)" fill="#0b77b3"/>
    <path id="Trazado_808" data-name="Trazado 808" d="M11.532,24.113c6.276,0,11.379-5.407,11.379-12.057S17.807,0,11.532,0,.152,5.407.152,12.057s5.1,12.057,11.379,12.057Zm0-20.094a7.829,7.829,0,0,1,7.586,8.038,7.829,7.829,0,0,1-7.586,8.038,7.829,7.829,0,0,1-7.586-8.038,7.829,7.829,0,0,1,7.586-8.038Zm0,0" fill="#0b77b3"/>
    <path id="Trazado_809" data-name="Trazado 809" d="M11.532,232.113c6.276,0,11.379-5.407,11.379-12.057S17.807,208,11.532,208,.152,213.407.152,220.056s5.1,12.057,11.379,12.057Zm0-20.094a8.051,8.051,0,0,1,0,16.075,8.051,8.051,0,0,1,0-16.075Zm0,0" transform="translate(0 -155.755)" fill="#0b77b3"/>
    <path id="Trazado_810" data-name="Trazado 810" d="M395.531,0c-6.276,0-11.379,5.407-11.379,12.057s5.1,12.057,11.379,12.057,11.379-5.407,11.379-12.057S401.807,0,395.531,0Zm0,20.094a7.829,7.829,0,0,1-7.586-8.038,7.6,7.6,0,1,1,15.172,0A7.829,7.829,0,0,1,395.531,20.094Zm0,0" transform="translate(-292.966)" fill="#0b77b3"/>
    <path id="Trazado_811" data-name="Trazado 811" d="M395.531,208c-6.276,0-11.379,5.407-11.379,12.057s5.1,12.057,11.379,12.057,11.379-5.407,11.379-12.057S401.807,208,395.531,208Zm0,20.094a8.051,8.051,0,1,1,7.586-8.038A7.829,7.829,0,0,1,395.531,228.094Zm0,0" transform="translate(-292.966 -155.755)" fill="#0b77b3"/>
    <path id="Trazado_812" data-name="Trazado 812" d="M392.152,144h3.793v4.019h-3.793Zm0,0" transform="translate(-299.07 -107.83)" fill="#0b77b3"/>
    <path id="Trazado_813" data-name="Trazado 813" d="M424.152,144h3.793v4.019h-3.793Zm0,0" transform="translate(-323.484 -107.83)" fill="#0b77b3"/>
    <path id="Trazado_814" data-name="Trazado 814" d="M424.152,112h3.793v4.019h-3.793Zm0,0" transform="translate(-323.484 -83.868)" fill="#0b77b3"/>
    <path id="Trazado_815" data-name="Trazado 815" d="M424.152,176h3.793v4.019h-3.793Zm0,0" transform="translate(-323.484 -131.793)" fill="#0b77b3"/>
    <path id="Trazado_816" data-name="Trazado 816" d="M72.152,144h3.793v4.019H72.152Zm0,0" transform="translate(-54.931 -107.83)" fill="#0b77b3"/>
    <path id="Trazado_817" data-name="Trazado 817" d="M40.152,144h3.793v4.019H40.152Zm0,0" transform="translate(-30.517 -107.83)" fill="#0b77b3"/>
    <path id="Trazado_818" data-name="Trazado 818" d="M40.152,176h3.793v4.019H40.152Zm0,0" transform="translate(-30.517 -131.793)" fill="#0b77b3"/>
    <path id="Trazado_819" data-name="Trazado 819" d="M40.152,112h3.793v4.019H40.152Zm0,0" transform="translate(-30.517 -83.868)" fill="#0b77b3"/>
    <path id="Trazado_820" data-name="Trazado 820" d="M32.152,40h7.586v4.019H32.152Zm0,0" transform="translate(-24.414 -29.953)" fill="#0b77b3"/>
    <path id="Trazado_821" data-name="Trazado 821" d="M32.152,248h7.586v4.019H32.152Zm0,0" transform="translate(-24.414 -185.708)" fill="#0b77b3"/>
    <path id="Trazado_822" data-name="Trazado 822" d="M421.842,32h-3.793v2.009h-1.9v4.019h1.9v2.009h3.793V38.028h1.9V34.009h-1.9Zm0,0" transform="translate(-317.38 -23.962)" fill="#0b77b3"/>
    <path id="Trazado_823" data-name="Trazado 823" d="M421.842,240h-3.793v2.009h-1.9v4.019h1.9v2.009h3.793v-2.009h1.9v-4.019h-1.9Zm0,0" transform="translate(-317.38 -179.717)" fill="#0b77b3"/>
  </g>
</svg>
