<?xml version="1.0" encoding="UTF-8"?>
<!DOCTYPE svg PUBLIC "-//W3C//DTD SVG 1.1//EN" "http://www.w3.org/Graphics/SVG/1.1/DTD/svg11.dtd">
<!-- Creator: CorelDRAW -->
<svg xmlns="http://www.w3.org/2000/svg" xml:space="preserve" width="5.5248mm" height="6.4569mm" version="1.1" style="shape-rendering:geometricPrecision; text-rendering:geometricPrecision; image-rendering:optimizeQuality; fill-rule:evenodd; clip-rule:evenodd"
viewBox="0 0 32.75 38.27"
 xmlns:xlink="http://www.w3.org/1999/xlink"
 xmlns:xodm="http://www.corel.com/coreldraw/odm/2003">
 <defs>
  <style type="text/css">
   <![CDATA[
    .fil0 {fill:#FF9805;fill-rule:nonzero}
   ]]>
  </style>
 </defs>
 <g id="Capa_x0020_1">
  <metadata id="CorelCorpID_0Corel-Layer"/>
  <path class="fil0" d="M32.75 15.48c-0.31,0.03 -0.63,0.05 -0.94,0.05 -3.45,0 -6.66,-1.74 -8.55,-4.62l0 15.73c0,6.42 -5.21,11.63 -11.63,11.63 -6.42,0 -11.63,-5.21 -11.63,-11.63 0,-6.42 5.21,-11.63 11.63,-11.63 0.24,0 0.48,0.02 0.72,0.04l0 5.73c-0.24,-0.03 -0.47,-0.07 -0.72,-0.07 -3.28,0 -5.93,2.66 -5.93,5.93 0,3.28 2.66,5.93 5.93,5.93 3.28,0 6.17,-2.58 6.17,-5.86l0.06 -26.72 5.48 0c0.52,4.92 4.48,8.76 9.41,9.12l0 6.37 -0 0z"/>
 </g>
</svg>
